<svg width="28" height="25" viewBox="0 0 28 25" fill="none" xmlns="http://www.w3.org/2000/svg">
<path d="M14.5 12.9688V12.9688V12.9688V12.9688V12.9688V12.9688V12.9688V12.9688V12.9688V12.9688V12.9688V12.9688V12.9688V12.9688V12.9688V12.9688V12.9688V12.9688V12.9688V12.9688V12.9688V12.9688M15.125 25H11.875C11.875 25 12.0833 24.8698 12.5 24.6094C12.9167 24.349 13.3698 24.0573 13.8594 23.7344C14.349 23.4115 14.8021 23.1198 15.2188 22.8594C15.6354 22.599 15.8438 22.4688 15.8438 22.4688V22.4688C17.5312 22.3438 19.0885 21.8333 20.5156 20.9375C21.9427 20.0417 23.0729 18.8438 23.9062 17.3438C22.1146 17.1771 20.4167 16.724 18.8125 15.9844C17.2083 15.2448 15.7708 14.2396 14.5 12.9688C13.2292 11.6979 12.2188 10.2604 11.4688 8.65625C10.7188 7.05208 10.2708 5.35417 10.125 3.5625C8.52083 4.45833 7.26562 5.69271 6.35938 7.26562C5.45312 8.83854 5 10.5417 5 12.375C5 12.4167 5 12.4792 5 12.5625C5 12.6458 5 12.7083 5 12.75C5 12.75 4.875 12.8073 4.625 12.9219C4.375 13.0365 4.09896 13.1562 3.79688 13.2812C3.49479 13.4062 3.21875 13.526 2.96875 13.6406C2.71875 13.7552 2.59375 13.8125 2.59375 13.8125C2.55208 13.5833 2.52604 13.3438 2.51562 13.0938C2.50521 12.8438 2.5 12.6042 2.5 12.375C2.5 9.33333 3.46875 6.65104 5.40625 4.32812C7.34375 2.00521 9.8125 0.5625 12.8125 0C12.4375 2.0625 12.5521 4.07812 13.1562 6.04688C13.7604 8.01562 14.8021 9.73958 16.2812 11.2188C17.7604 12.6979 19.4844 13.7396 21.4531 14.3438C23.4219 14.9479 25.4375 15.0625 27.5 14.6875C26.9583 17.6875 25.5208 20.1562 23.1875 22.0938C20.8542 24.0312 18.1667 25 15.125 25V25M6.25 22.5H11.875C12.3958 22.5 12.8385 22.3177 13.2031 21.9531C13.5677 21.5885 13.75 21.1458 13.75 20.625C13.75 20.1042 13.5729 19.6615 13.2188 19.2969C12.8646 18.9323 12.4375 18.75 11.9375 18.75H10.3125L9.6875 17.25C9.39583 16.5625 8.9375 16.0156 8.3125 15.6094C7.6875 15.2031 7 15 6.25 15C5.20833 15 4.32292 15.3594 3.59375 16.0781C2.86458 16.7969 2.5 17.6875 2.5 18.75C2.5 19.7917 2.86458 20.6771 3.59375 21.4062C4.32292 22.1354 5.20833 22.5 6.25 22.5V22.5M6.25 25C4.52083 25 3.04688 24.3906 1.82812 23.1719C0.609375 21.9531 0 20.4792 0 18.75C0 17.0208 0.609375 15.5469 1.82812 14.3281C3.04688 13.1094 4.52083 12.5 6.25 12.5C7.5 12.5 8.64062 12.8385 9.67188 13.5156C10.7031 14.1927 11.4688 15.1042 11.9688 16.25V16.25V16.25C13.1562 16.2917 14.1667 16.7344 15 17.5781C15.8333 18.4219 16.25 19.4375 16.25 20.625C16.25 21.8333 15.8229 22.8646 14.9688 23.7188C14.1146 24.5729 13.0833 25 11.875 25H6.25V25" fill="black"/>
</svg>
