<svg width="30" height="30" viewBox="0 0 30 30" fill="none" xmlns="http://www.w3.org/2000/svg">
<path d="M15 17.25C13.3 17.25 11.7562 17.7313 10.3687 18.6938C8.98125 19.6563 7.975 20.925 7.35 22.5H22.65C22.025 20.925 21.0188 19.6563 19.6313 18.6938C18.2438 17.7313 16.7 17.25 15 17.25V17.25M8.7 15L10.35 13.425L11.925 15L13.5 13.425L11.925 11.85L13.5 10.2L11.925 8.625L10.35 10.2L8.7 8.625L7.125 10.2L8.7 11.85L7.125 13.425L8.7 15V15M18.075 15L19.65 13.425L21.3 15L22.875 13.425L21.3 11.85L22.875 10.2L21.3 8.625L19.65 10.2L18.075 8.625L16.5 10.2L18.075 11.85L16.5 13.425L18.075 15V15M15 30C12.925 30 10.975 29.6063 9.15 28.8188C7.325 28.0313 5.7375 26.9625 4.3875 25.6125C3.0375 24.2625 1.96875 22.675 1.18125 20.85C0.39375 19.025 0 17.075 0 15C0 12.925 0.39375 10.975 1.18125 9.15C1.96875 7.325 3.0375 5.7375 4.3875 4.3875C5.7375 3.0375 7.325 1.96875 9.15 1.18125C10.975 0.39375 12.925 0 15 0C17.075 0 19.025 0.39375 20.85 1.18125C22.675 1.96875 24.2625 3.0375 25.6125 4.3875C26.9625 5.7375 28.0313 7.325 28.8188 9.15C29.6063 10.975 30 12.925 30 15C30 17.075 29.6063 19.025 28.8188 20.85C28.0313 22.675 26.9625 24.2625 25.6125 25.6125C24.2625 26.9625 22.675 28.0313 20.85 28.8188C19.025 29.6063 17.075 30 15 30V30" fill="black"/>
</svg>
