<svg width="30" height="30" viewBox="0 0 30 30" fill="none" xmlns="http://www.w3.org/2000/svg">
<path d="M20.25 13.5C20.875 13.5 21.4062 13.2812 21.8438 12.8438C22.2812 12.4062 22.5 11.875 22.5 11.25C22.5 10.625 22.2812 10.0938 21.8438 9.65625C21.4062 9.21875 20.875 9 20.25 9C19.625 9 19.0938 9.21875 18.6562 9.65625C18.2188 10.0938 18 10.625 18 11.25C18 11.875 18.2188 12.4062 18.6562 12.8438C19.0938 13.2812 19.625 13.5 20.25 13.5V13.5M9.75 13.5C10.375 13.5 10.9062 13.2812 11.3438 12.8438C11.7812 12.4062 12 11.875 12 11.25C12 10.625 11.7812 10.0938 11.3438 9.65625C10.9062 9.21875 10.375 9 9.75 9C9.125 9 8.59375 9.21875 8.15625 9.65625C7.71875 10.0938 7.5 10.625 7.5 11.25C7.5 11.875 7.71875 12.4062 8.15625 12.8438C8.59375 13.2812 9.125 13.5 9.75 13.5V13.5M15 17.25C13.3 17.25 11.7562 17.7313 10.3687 18.6938C8.98125 19.6563 7.975 20.925 7.35 22.5H9.825C10.375 21.575 11.1063 20.8437 12.0188 20.3062C12.9313 19.7687 13.925 19.5 15 19.5C16.075 19.5 17.0688 19.7687 17.9813 20.3062C18.8938 20.8437 19.625 21.575 20.175 22.5H22.65C22.025 20.925 21.0188 19.6563 19.6313 18.6938C18.2438 17.7313 16.7 17.25 15 17.25V17.25M15 30C12.925 30 10.975 29.6063 9.15 28.8188C7.325 28.0313 5.7375 26.9625 4.3875 25.6125C3.0375 24.2625 1.96875 22.675 1.18125 20.85C0.39375 19.025 0 17.075 0 15C0 12.925 0.39375 10.975 1.18125 9.15C1.96875 7.325 3.0375 5.7375 4.3875 4.3875C5.7375 3.0375 7.325 1.96875 9.15 1.18125C10.975 0.39375 12.925 0 15 0C17.075 0 19.025 0.39375 20.85 1.18125C22.675 1.96875 24.2625 3.0375 25.6125 4.3875C26.9625 5.7375 28.0313 7.325 28.8188 9.15C29.6063 10.975 30 12.925 30 15C30 17.075 29.6063 19.025 28.8188 20.85C28.0313 22.675 26.9625 24.2625 25.6125 25.6125C24.2625 26.9625 22.675 28.0313 20.85 28.8188C19.025 29.6063 17.075 30 15 30V30" fill="black"/>
</svg>
