<svg width="28" height="24" viewBox="0 0 28 24" fill="none" xmlns="http://www.w3.org/2000/svg">
<path d="M0 23.75L13.75 0L27.5 23.75H0V23.75M4.3125 21.25H23.1875L13.75 5L4.3125 21.25V21.25M13.75 20C14.1042 20 14.401 19.8802 14.6406 19.6406C14.8802 19.401 15 19.1042 15 18.75C15 18.3958 14.8802 18.099 14.6406 17.8594C14.401 17.6198 14.1042 17.5 13.75 17.5C13.3958 17.5 13.099 17.6198 12.8594 17.8594C12.6198 18.099 12.5 18.3958 12.5 18.75C12.5 19.1042 12.6198 19.401 12.8594 19.6406C13.099 19.8802 13.3958 20 13.75 20V20M12.5 16.25H15V10H12.5V16.25V16.25M13.75 13.125V13.125V13.125V13.125V13.125" fill="black"/>
</svg>
