<svg width="17" height="17" viewBox="0 0 17 17" fill="none" xmlns="http://www.w3.org/2000/svg">
<path d="M8.33333 16.6667C7.19444 16.6667 6.11806 16.4479 5.10417 16.0104C4.09028 15.5729 3.20486 14.9757 2.44792 14.2188C1.69097 13.4618 1.09375 12.5764 0.65625 11.5625C0.21875 10.5486 0 9.47222 0 8.33333C0 7.18056 0.225694 6.09722 0.677083 5.08333C1.12847 4.06944 1.73958 3.1875 2.51042 2.4375C3.28125 1.6875 4.18056 1.09375 5.20833 0.65625C6.23611 0.21875 7.33333 0 8.5 0C9.61111 0 10.6597 0.190972 11.6458 0.572917C12.6319 0.954861 13.4965 1.48264 14.2396 2.15625C14.9826 2.82986 15.5729 3.62847 16.0104 4.55208C16.4479 5.47569 16.6667 6.47222 16.6667 7.54167C16.6667 9.13889 16.1806 10.3646 15.2083 11.2188C14.2361 12.0729 13.0556 12.5 11.6667 12.5H10.125C10 12.5 9.91319 12.5347 9.86458 12.6042C9.81597 12.6736 9.79167 12.75 9.79167 12.8333C9.79167 13 9.89583 13.2396 10.1042 13.5521C10.3125 13.8646 10.4167 14.2222 10.4167 14.625C10.4167 15.3194 10.2257 15.8333 9.84375 16.1667C9.46181 16.5 8.95833 16.6667 8.33333 16.6667V16.6667M8.33333 8.33333V8.33333V8.33333V8.33333V8.33333V8.33333V8.33333V8.33333V8.33333V8.33333V8.33333V8.33333V8.33333V8.33333V8.33333V8.33333V8.33333M3.75 9.16667C4.11111 9.16667 4.40972 9.04861 4.64583 8.8125C4.88194 8.57639 5 8.27778 5 7.91667C5 7.55556 4.88194 7.25694 4.64583 7.02083C4.40972 6.78472 4.11111 6.66667 3.75 6.66667C3.38889 6.66667 3.09028 6.78472 2.85417 7.02083C2.61806 7.25694 2.5 7.55556 2.5 7.91667C2.5 8.27778 2.61806 8.57639 2.85417 8.8125C3.09028 9.04861 3.38889 9.16667 3.75 9.16667V9.16667M6.25 5.83333C6.61111 5.83333 6.90972 5.71528 7.14583 5.47917C7.38194 5.24306 7.5 4.94444 7.5 4.58333C7.5 4.22222 7.38194 3.92361 7.14583 3.6875C6.90972 3.45139 6.61111 3.33333 6.25 3.33333C5.88889 3.33333 5.59028 3.45139 5.35417 3.6875C5.11806 3.92361 5 4.22222 5 4.58333C5 4.94444 5.11806 5.24306 5.35417 5.47917C5.59028 5.71528 5.88889 5.83333 6.25 5.83333V5.83333M10.4167 5.83333C10.7778 5.83333 11.0764 5.71528 11.3125 5.47917C11.5486 5.24306 11.6667 4.94444 11.6667 4.58333C11.6667 4.22222 11.5486 3.92361 11.3125 3.6875C11.0764 3.45139 10.7778 3.33333 10.4167 3.33333C10.0556 3.33333 9.75694 3.45139 9.52083 3.6875C9.28472 3.92361 9.16667 4.22222 9.16667 4.58333C9.16667 4.94444 9.28472 5.24306 9.52083 5.47917C9.75694 5.71528 10.0556 5.83333 10.4167 5.83333V5.83333M12.9167 9.16667C13.2778 9.16667 13.5764 9.04861 13.8125 8.8125C14.0486 8.57639 14.1667 8.27778 14.1667 7.91667C14.1667 7.55556 14.0486 7.25694 13.8125 7.02083C13.5764 6.78472 13.2778 6.66667 12.9167 6.66667C12.5556 6.66667 12.2569 6.78472 12.0208 7.02083C11.7847 7.25694 11.6667 7.55556 11.6667 7.91667C11.6667 8.27778 11.7847 8.57639 12.0208 8.8125C12.2569 9.04861 12.5556 9.16667 12.9167 9.16667V9.16667M8.33333 15C8.45833 15 8.55903 14.9653 8.63542 14.8958C8.71181 14.8264 8.75 14.7361 8.75 14.625C8.75 14.4306 8.64583 14.2014 8.4375 13.9375C8.22917 13.6736 8.125 13.2778 8.125 12.75C8.125 12.1667 8.32639 11.7014 8.72917 11.3542C9.13194 11.0069 9.625 10.8333 10.2083 10.8333H11.6667C12.5833 10.8333 13.3681 10.566 14.0208 10.0312C14.6736 9.49653 15 8.66667 15 7.54167C15 5.86111 14.3576 4.46181 13.0729 3.34375C11.7882 2.22569 10.2639 1.66667 8.5 1.66667C6.61111 1.66667 5 2.3125 3.66667 3.60417C2.33333 4.89583 1.66667 6.47222 1.66667 8.33333C1.66667 10.1806 2.31597 11.7535 3.61458 13.0521C4.91319 14.3507 6.48611 15 8.33333 15V15" fill="black"/>
</svg>
