<svg width="15" height="14" viewBox="0 0 15 14" fill="none" xmlns="http://www.w3.org/2000/svg">
<path d="M3.16667 13.3333C2.75 13.3333 2.39583 13.1875 2.10417 12.8958C1.8125 12.6042 1.66667 12.25 1.66667 11.8333C1.66667 11.5417 1.75 11.2674 1.91667 11.0104C2.08333 10.7535 2.30556 10.5694 2.58333 10.4583L5.83333 9.16667V7.29167C5.08333 8.16667 4.21181 8.83681 3.21875 9.30208C2.22569 9.76736 1.15278 10 0 10V8.33333C0.944444 8.33333 1.80208 8.13889 2.57292 7.75C3.34375 7.36111 4.04167 6.80556 4.66667 6.08333L5.79167 4.75C5.95833 4.55556 6.15278 4.40972 6.375 4.3125C6.59722 4.21528 6.83333 4.16667 7.08333 4.16667H7.91667C8.16667 4.16667 8.40278 4.21528 8.625 4.3125C8.84722 4.40972 9.04167 4.55556 9.20833 4.75L10.3333 6.08333C10.9583 6.80556 11.6562 7.36111 12.4271 7.75C13.1979 8.13889 14.0556 8.33333 15 8.33333V10C13.8472 10 12.7743 9.76736 11.7812 9.30208C10.7882 8.83681 9.91667 8.16667 9.16667 7.29167V9.16667L12.4167 10.4583C12.6944 10.5694 12.9167 10.7535 13.0833 11.0104C13.25 11.2674 13.3333 11.5417 13.3333 11.8333C13.3333 12.25 13.1875 12.6042 12.8958 12.8958C12.6042 13.1875 12.25 13.3333 11.8333 13.3333H5.83333V12.9167C5.83333 12.5556 5.95139 12.2569 6.1875 12.0208C6.42361 11.7847 6.72222 11.6667 7.08333 11.6667H9.58333C9.70833 11.6667 9.80903 11.6285 9.88542 11.5521C9.96181 11.4757 10 11.375 10 11.25C10 11.125 9.96181 11.0243 9.88542 10.9479C9.80903 10.8715 9.70833 10.8333 9.58333 10.8333H7.08333C6.5 10.8333 6.00694 11.0347 5.60417 11.4375C5.20139 11.8403 5 12.3333 5 12.9167V13.3333H3.16667V13.3333M7.5 3.33333C7.04167 3.33333 6.64931 3.17014 6.32292 2.84375C5.99653 2.51736 5.83333 2.125 5.83333 1.66667C5.83333 1.20833 5.99653 0.815972 6.32292 0.489583C6.64931 0.163194 7.04167 0 7.5 0C7.95833 0 8.35069 0.163194 8.67708 0.489583C9.00347 0.815972 9.16667 1.20833 9.16667 1.66667C9.16667 2.125 9.00347 2.51736 8.67708 2.84375C8.35069 3.17014 7.95833 3.33333 7.5 3.33333V3.33333" fill="black"/>
</svg>
