<svg width="28" height="28" viewBox="0 0 28 28" fill="none" xmlns="http://www.w3.org/2000/svg">
<path d="M9.65625 23.9062C7.48958 22.9062 5.72917 21.3958 4.375 19.375C3.02083 17.3542 2.34375 15.0729 2.34375 12.5312C2.34375 11.9896 2.36979 11.4583 2.42188 10.9375C2.47396 10.4167 2.5625 9.90625 2.6875 9.40625L1.25 10.25L0 8.09375L5.96875 4.65625L9.40625 10.5938L7.21875 11.8438L5.53125 8.90625C5.30208 9.46875 5.13021 10.0521 5.01562 10.6562C4.90104 11.2604 4.84375 11.8854 4.84375 12.5312C4.84375 14.5521 5.39583 16.3906 6.5 18.0469C7.60417 19.7031 9.07292 20.9271 10.9062 21.7188L9.65625 23.9062V23.9062M19.2188 8.75V6.25H22.625C21.6667 5.0625 20.5104 4.14062 19.1562 3.48438C17.8021 2.82812 16.3646 2.5 14.8438 2.5C13.6979 2.5 12.6146 2.67708 11.5938 3.03125C10.5729 3.38542 9.63542 3.88542 8.78125 4.53125L7.53125 2.34375C8.57292 1.61458 9.70833 1.04167 10.9375 0.625C12.1667 0.208333 13.4688 0 14.8438 0C16.4896 0 18.0625 0.307292 19.5625 0.921875C21.0625 1.53646 22.4062 2.42708 23.5938 3.59375V1.875H26.0938V8.75H19.2188V8.75M18.4062 27.5L12.4375 24.0625L15.875 18.125L18.0312 19.375L16.25 22.4375C18.7083 22.0833 20.7552 20.9688 22.3906 19.0938C24.026 17.2188 24.8438 15.0208 24.8438 12.5C24.8438 12.2708 24.8385 12.0573 24.8281 11.8594C24.8177 11.6615 24.7917 11.4583 24.75 11.25H27.2812C27.3021 11.4583 27.3177 11.6615 27.3281 11.8594C27.3385 12.0573 27.3438 12.2708 27.3438 12.5C27.3438 15.3125 26.5052 17.8281 24.8281 20.0469C23.151 22.2656 20.9688 23.7604 18.2812 24.5312L19.6562 25.3438L18.4062 27.5V27.5" fill="black"/>
</svg>
