<svg width="30" height="30" viewBox="0 0 30 30" fill="none" xmlns="http://www.w3.org/2000/svg">
<path d="M15 23.25C16.7 23.25 18.2438 22.7687 19.6313 21.8062C21.0188 20.8437 22.025 19.575 22.65 18H7.35C7.975 19.575 8.98125 20.8437 10.3687 21.8062C11.7562 22.7687 13.3 23.25 15 23.25ZM8.7 13.5L10.35 11.925L11.925 13.5L13.5 11.925L10.35 8.7L7.125 11.925L8.7 13.5ZM18.075 13.5L19.65 11.925L21.3 13.5L22.875 11.925L19.65 8.7L16.5 11.925L18.075 13.5ZM15 30C12.925 30 10.975 29.6063 9.15 28.8188C7.325 28.0313 5.7375 26.9625 4.3875 25.6125C3.0375 24.2625 1.96875 22.675 1.18125 20.85C0.39375 19.025 0 17.075 0 15C0 12.925 0.39375 10.975 1.18125 9.15C1.96875 7.325 3.0375 5.7375 4.3875 4.3875C5.7375 3.0375 7.325 1.96875 9.15 1.18125C10.975 0.39375 12.925 0 15 0C17.075 0 19.025 0.39375 20.85 1.18125C22.675 1.96875 24.2625 3.0375 25.6125 4.3875C26.9625 5.7375 28.0313 7.325 28.8188 9.15C29.6063 10.975 30 12.925 30 15C30 17.075 29.6063 19.025 28.8188 20.85C28.0313 22.675 26.9625 24.2625 25.6125 25.6125C24.2625 26.9625 22.675 28.0313 20.85 28.8188C19.025 29.6063 17.075 30 15 30Z" fill="black"/>
</svg>
