<svg width="30" height="27" viewBox="0 0 30 27" fill="none" xmlns="http://www.w3.org/2000/svg">
<path d="M15 27C14.55 27 14.1188 26.9188 13.7063 26.7563C13.2937 26.5938 12.925 26.35 12.6 26.025L2.55 15.9375C2.2 15.5875 1.88125 15.2063 1.59375 14.7937C1.30625 14.3812 1.0625 13.95 0.8625 13.5H14.8125C15.2375 13.5 15.5938 13.6437 15.8813 13.9312C16.1688 14.2188 16.3125 14.575 16.3125 15C16.3125 15.425 16.1688 15.7812 15.8813 16.0688C15.5938 16.3563 15.2375 16.5 14.8125 16.5C14.4625 16.5 14.15 16.4062 13.875 16.2188C13.6 16.0312 13.425 15.7625 13.35 15.4125L10.4625 16.2C10.7375 17.175 11.275 17.9688 12.075 18.5812C12.875 19.1937 13.7875 19.5 14.8125 19.5C16.0625 19.5 17.125 19.0625 18 18.1875C18.875 17.3125 19.3125 16.25 19.3125 15C19.3125 14.725 19.2875 14.4688 19.2375 14.2312C19.1875 13.9937 19.125 13.75 19.05 13.5H20.8125C22.0625 13.5 23.125 13.0625 24 12.1875C24.875 11.3125 25.3125 10.25 25.3125 9C25.3125 7.75 24.875 6.6875 24 5.8125C23.125 4.9375 22.0625 4.5 20.8125 4.5C19.7875 4.5 18.875 4.80625 18.075 5.41875C17.275 6.03125 16.7375 6.825 16.4625 7.8L19.35 8.5875C19.425 8.2375 19.6 7.96875 19.875 7.78125C20.15 7.59375 20.4625 7.5 20.8125 7.5C21.2375 7.5 21.5938 7.64375 21.8813 7.93125C22.1688 8.21875 22.3125 8.575 22.3125 9C22.3125 9.425 22.1688 9.78125 21.8813 10.0688C21.5938 10.3563 21.2375 10.5 20.8125 10.5H0.075C0.05 10.3 0.03125 10.1188 0.01875 9.95625C0.00625 9.79375 0 9.6125 0 9.4125C0 6.8375 0.8375 4.625 2.5125 2.775C4.1875 0.925 6.275 0 8.775 0C9.975 0 11.1062 0.2375 12.1687 0.7125C13.2312 1.1875 14.175 1.85 15 2.7C15.8 1.85 16.7313 1.1875 17.7938 0.7125C18.8563 0.2375 19.9875 0 21.1875 0C23.6875 0 25.7812 0.925 27.4688 2.775C29.1562 4.625 30 6.825 30 9.375C30 10.6 29.7875 11.775 29.3625 12.9C28.9375 14.025 28.3 15.025 27.45 15.9L17.3625 26.025C17.0375 26.35 16.675 26.5938 16.275 26.7563C15.875 26.9188 15.45 27 15 27Z" fill="#49655A"/>
</svg>
