<svg width="17" height="17" viewBox="0 0 17 17" fill="none" xmlns="http://www.w3.org/2000/svg">
<path d="M8.41667 16.6667C7.25 16.6667 6.15625 16.4444 5.13542 16C4.11458 15.5556 3.22569 14.9549 2.46875 14.1979C1.71181 13.441 1.11111 12.5521 0.666667 11.5312C0.222222 10.5104 0 9.41667 0 8.25C0 6.22222 0.645833 4.43403 1.9375 2.88542C3.22917 1.33681 4.875 0.375 6.875 0C6.625 1.375 6.70139 2.71875 7.10417 4.03125C7.50694 5.34375 8.20139 6.49306 9.1875 7.47917C10.1736 8.46528 11.3229 9.15972 12.6354 9.5625C13.9479 9.96528 15.2917 10.0417 16.6667 9.79167C16.3056 11.7917 15.3472 13.4375 13.7917 14.7292C12.2361 16.0208 10.4444 16.6667 8.41667 16.6667ZM8.41667 15C9.63889 15 10.7708 14.6944 11.8125 14.0833C12.8542 13.4722 13.6736 12.6319 14.2708 11.5625C13.0764 11.4514 11.9444 11.1493 10.875 10.6562C9.80556 10.1632 8.84722 9.49306 8 8.64583C7.15278 7.79861 6.47917 6.84028 5.97917 5.77083C5.47917 4.70139 5.18056 3.56944 5.08333 2.375C4.01389 2.97222 3.17708 3.79514 2.57292 4.84375C1.96875 5.89236 1.66667 7.02778 1.66667 8.25C1.66667 10.125 2.32292 11.7188 3.63542 13.0312C4.94792 14.3438 6.54167 15 8.41667 15Z" fill="black"/>
</svg>
