<svg width="34" height="34" viewBox="0 0 34 34" fill="none" xmlns="http://www.w3.org/2000/svg">
<path d="M3.77778 30.2222H6.46944L24.9333 11.7583L22.2417 9.06667L3.77778 27.5306V30.2222ZM0 34V25.9722L24.9333 1.08611C25.3111 0.739815 25.7282 0.472222 26.1847 0.283333C26.6412 0.0944444 27.1213 0 27.625 0C28.1287 0 28.6167 0.0944444 29.0889 0.283333C29.5611 0.472222 29.9704 0.755556 30.3167 1.13333L32.9139 3.77778C33.2917 4.12407 33.5671 4.53333 33.7403 5.00556C33.9134 5.47778 34 5.95 34 6.42222C34 6.92593 33.9134 7.40602 33.7403 7.8625C33.5671 8.31898 33.2917 8.73611 32.9139 9.11389L8.02778 34H0ZM23.5639 10.4361L22.2417 9.06667L24.9333 11.7583L23.5639 10.4361Z" fill="black"/>
</svg>
